<svg width="32" height="32" viewBox="0 0 40 40" fill="none" xmlns="http://www.w3.org/2000/svg">
  <defs>
    <linearGradient id="favCaliperGold" x1="6" y1="12" x2="26" y2="36" gradientUnits="userSpaceOnUse">
      <stop offset="0%" stopColor="#fae7a5" />
      <stop offset="35%" stopColor="#d9a92e" />
      <stop offset="80%" stopColor="#8c6418" />
    </linearGradient>
    <linearGradient id="favCaliperTitanium" x1="14" y1="4" x2="34" y2="28" gradientUnits="userSpaceOnUse">
      <stop offset="0%" stopColor="#ffffff" />
      <stop offset="40%" stopColor="#d5d8dc" />
      <stop offset="80%" stopColor="#68717a" />
    </linearGradient>
    <linearGradient id="favCrystalGlow" x1="15" y1="13" x2="25" y2="27" gradientUnits="userSpaceOnUse">
      <stop offset="0%" stopColor="#ffffff" />
      <stop offset="100%" stopColor="#a4bcd0" />
    </linearGradient>
  </defs>

  <!-- Deep Obsidian Background -->
  <rect width="40" height="40" rx="9" fill="#080908" />

  <!-- TOP & RIGHT CALIPER: Brushed Dark Titanium Arc -->
  <path
    d="M21 5.5C29.5 6.5 35 13.5 32 22C30.8 25.5 28.5 28 24.5 30C27 26 28 21.5 25.5 17.5C23.5 14 19.5 10.8 15 10.5C17.2 8.2 19.2 6.5 21 5.5Z"
    fill="url(#favCaliperTitanium)"
  />

  <!-- BOTTOM & LEFT CALIPER: Polished 24K Gold Arc -->
  <path
    d="M19 34.5C10.5 33.5 5 26.5 8 18C9.2 14.5 11.5 12 15.5 10C13 14 12 18.5 14.5 22.5C16.5 26 20.5 29.2 25 29.5C22.8 31.8 20.8 33.5 19 34.5Z"
    fill="url(#favCaliperGold)"
  />

  <!-- CENTRAL CRYSTAL PRISM -->
  <polygon
    points="20,13 25.5,16.5 25.5,23.5 20,27 14.5,23.5 14.5,16.5"
    fill="url(#favCrystalGlow)"
    stroke="#ffffff"
    strokeWidth="0.8"
  />
  <polygon points="20,13 20,20 14.5,16.5" fill="#ffffff" fillOpacity="0.85" />
  <polygon points="20,13 25.5,16.5 20,20" fill="#e1eaf2" fillOpacity="0.6" />
  <polygon points="25.5,16.5 25.5,23.5 20,20" fill="#8aa2b8" fillOpacity="0.75" />
  <polygon points="14.5,23.5 20,20 20,27" fill="#a4bcd0" fillOpacity="0.85" />
  <circle cx="20" cy="20" r="1.5" fill="#ffffff" />
</svg>
